<?xml version="1.0" encoding="UTF-8" standalone="no"?>
<svg
   viewBox="0 0 128 128"
   version="1.1"
   id="svg8"
   width="128"
   height="128"
   sodipodi:docname="logo_128.svg"
   inkscape:version="1.2.2 (732a01da63, 2022-12-09)"
   inkscape:export-filename="logo_128.png"
   inkscape:export-xdpi="96"
   inkscape:export-ydpi="96"
   xmlns:inkscape="http://www.inkscape.org/namespaces/inkscape"
   xmlns:sodipodi="http://sodipodi.sourceforge.net/DTD/sodipodi-0.dtd"
   xmlns="http://www.w3.org/2000/svg"
   xmlns:svg="http://www.w3.org/2000/svg">
  <defs
     id="defs10" />
  <sodipodi:namedview
     id="namedview8"
     pagecolor="#ffffff"
     bordercolor="#666666"
     borderopacity="1.0"
     inkscape:showpageshadow="2"
     inkscape:pageopacity="0.0"
     inkscape:pagecheckerboard="0"
     inkscape:deskcolor="#d1d1d1"
     showgrid="false"
     inkscape:zoom="6.25"
     inkscape:cx="58.88"
     inkscape:cy="64.08"
     inkscape:window-width="1394"
     inkscape:window-height="1032"
     inkscape:window-x="78"
     inkscape:window-y="1088"
     inkscape:window-maximized="0"
     inkscape:current-layer="svg8" />
  <g
     id="g10"
     transform="matrix(1.9613051,0,0,1.9485741,1.741029,1.7359558)"
     style="stroke-width:1.00079;stroke-dasharray:none;image-rendering:optimizeQuality">
    <path
       d="M 8.579503,25.350171 C 7.5264523,28.171585 7,30.760471 7,33.116302 c 0,2.141667 0.4603876,3.822016 1.3807708,5.041833 0.920384,1.210506 2.1971812,1.816035 3.8306542,1.816035 1.699807,0 2.985169,-0.88914 3.855802,-2.667653 h 0.04931 c 0.854049,1.778513 2.131339,2.667653 3.831146,2.667653 1.658348,0 2.947748,-0.605529 3.868131,-1.816035 0.920384,-1.210507 1.380279,-2.890853 1.380279,-5.041833 0,-2.346521 -0.534526,-4.935407 -1.604161,-7.766131 0,0 -0.85951,-1.897566 -2.116464,-1.392169 -1.35955,0.54665 -0.918273,1.492038 -0.918273,1.492038 1.218886,2.895905 1.828042,5.403344 1.828042,7.721931 0,1.331556 -0.219855,2.35111 -0.659318,3.058793 -0.439463,0.707681 -1.040546,1.061592 -1.803385,1.061592 -1.625181,0 -2.437555,-1.391886 -2.437555,-4.176054 V 29.17757 c 0,0 -0.117158,-1.332909 -1.396291,-1.331788 -1.235099,0.0011 -1.377579,1.331788 -1.377579,1.331788 v 3.938732 c 0,2.784168 -0.816409,4.176054 -2.449882,4.176054 -0.771133,0 -1.376746,-0.353911 -1.816208,-1.061592 -0.43117,-0.707683 -0.6464959,-1.727237 -0.6464959,-3.058793 0,-2.318587 0.7105529,-4.826026 1.9294389,-7.721931 0,0 0.236027,-1.01575 -1.099776,-1.491731 C 9.2759377,23.638846 8.5795,25.350171 8.5795,25.350171 Z"
       style="fill:#3392ff;fill-opacity:1;stroke:#005fcc;stroke-width:1.00079;stroke-dasharray:none;stroke-opacity:1"
       id="path2" />
    <path
       d="m 40.383407,25.34977 c -1.053051,2.821414 -1.579503,5.4103 -1.579503,7.766131 0,2.141667 0.460388,3.822016 1.380771,5.041833 0.920384,1.210506 2.197181,1.816035 3.830654,1.816035 1.699807,0 2.985169,-0.88914 3.855802,-2.667653 h 0.04931 c 0.854049,1.778513 2.131339,2.667653 3.831146,2.667653 1.658348,0 2.947748,-0.605529 3.868131,-1.816035 C 56.540105,36.947227 57,35.266881 57,33.115901 57,30.76938 56.465474,28.180494 55.395839,25.34977 c 0,0 -0.85951,-1.897566 -2.116463,-1.392169 -1.35955,0.54665 -0.918274,1.492038 -0.918274,1.492038 1.218886,2.895905 1.828042,5.403344 1.828042,7.721931 0,1.331556 -0.219855,2.35111 -0.659318,3.058793 -0.439462,0.707681 -1.040546,1.061592 -1.803385,1.061592 -1.625181,0 -2.437554,-1.391886 -2.437554,-4.176054 v -3.938732 c 0,0 -0.117158,-1.332909 -1.396291,-1.331788 -1.2351,0.0011 -1.37758,1.331788 -1.37758,1.331788 v 3.938732 c 0,2.784168 -0.816409,4.176054 -2.449882,4.176054 -0.771133,0 -1.376745,-0.353911 -1.816207,-1.061592 -0.431171,-0.707683 -0.646497,-1.727237 -0.646497,-3.058793 0,-2.318587 0.710553,-4.826026 1.929439,-7.721931 0,0 0.236028,-1.01575 -1.099776,-1.491731 -1.352248,-0.319463 -2.048686,1.391862 -2.048686,1.391862 z"
       style="fill:#3392ff;fill-opacity:1;stroke:#005fcc;stroke-width:1.00079;stroke-dasharray:none;stroke-opacity:1"
       id="path4" />
    <path
       d="m 33.019645,25.001028 c -1.542265,0 -2.777711,0.353911 -3.706385,1.061592 -0.920382,0.707681 -1.38077,1.694756 -1.38077,2.96113 0,0.772863 0.253135,1.461778 0.758931,2.06703 0.505795,0.605254 1.098312,0.991647 1.778236,1.159255 v 0.05615 c -0.9038,0.195543 -1.63347,0.614417 -2.189015,1.256916 -0.547256,0.633189 -0.820573,1.387553 -0.820573,2.262845 0,1.266375 0.485098,2.281081 1.455233,3.044631 0.970135,0.754239 2.296356,1.131421 3.97958,1.131421 1.691516,0 2.220509,-0.139528 3.389978,-0.531829 0,0 1.413862,-0.387677 1.3971,-1.486908 -0.0133,-0.872071 -0.982444,-0.962367 -2.032612,-0.642106 -1.171975,0.357408 -1.268613,0.479769 -2.334675,0.452225 -0.757725,-0.01958 -1.634132,-0.3752 -2.148222,-0.738351 -0.514087,-0.363151 -0.771257,-0.847478 -0.771257,-1.452732 0,-1.41536 1.890371,-2.123184 3.270946,-2.123184 1.380575,0 1.039387,-0.01786 1.75076,7.66e-4 0.711374,0.01863 1.025098,-0.556884 1.019156,-1.073963 -0.006,-0.517079 -0.42743,-1.039301 -1.018984,-1.06273 -0.591554,-0.02343 -0.769128,-0.127041 -1.439764,-0.154738 -0.670636,-0.0277 -1.650108,-0.181317 -2.238822,-0.544471 -0.580422,-0.372464 -0.870872,-0.861151 -0.870872,-1.466403 0,-1.173261 0.779586,-1.760369 2.338434,-1.760369 1.177427,0 2.296114,0.337677 2.826785,0.644959 0.530672,0.307283 1.449765,0.09409 1.620973,-0.791047 0.171208,-0.885142 -0.757747,-1.450447 -1.313293,-1.738395 -0.555547,-0.287948 -2.068816,-0.531696 -3.320868,-0.531696 z"
       style="fill:#3392ff;fill-opacity:1;stroke:#005fcc;stroke-width:1.00079;stroke-dasharray:none;stroke-opacity:1"
       id="path6" />
    <path
       d="M 32.00128,0.1225635 C 14.395194,0.12256296 0.12256296,14.395194 0.1225635,32.00128 c 5.1e-7,16.659624 12.7958235,30.157024 29.0699275,31.756678 0.634273,0.04415 0.766329,0.0382 0.775338,-0.0945 C 29.979253,63.495216 29.69028,63.436838 29.325,63.341 22.362423,61.609356 4.3171057,55.329779 4.3654091,34.251858 4.5004303,26.43826 7.8048922,17.917408 14.211282,11.980427 19.097203,7.4525083 25.787378,4.4275128 34.251858,4.3654091 53.733268,4.4752031 60.615739,18.023385 62.74468,26.127154 c 0.133415,0.506263 0.208244,0.669149 0.420838,0.665832 0.163126,-0.0025 0.210306,-0.22385 0.195425,-0.508765 C 62.783464,11.021667 49.670177,0.58636842 32.00128,0.1225635 Z"
       style="display:inline;fill:#3392ff;fill-opacity:1;stroke:#005fcc;stroke-width:1.00079;stroke-dasharray:none;stroke-opacity:1"
       id="path8" />
  </g>
</svg>
